# xmcd
#
# Track frame offsets:
#	150
#	19022
#	33596
#	49741
#	67875
#	85147
#	104660
#	122038
#	137327
#	151933
#	172780
#	190397
#	207315
#	220504
#
# Disc length: 3202 seconds
#
# Revision: 0
# Processed by: cddbd v1.5.2PL0 Copyright (c) Steve Scherf et al.
# Submitted via: dBpowerAMP V4.0
#
DISCID=b60c800e
DTITLE=Various Artist - CDX 410 Nov.
DYEAR=2006
DGENRE=Country
TTITLE0=01 - Martina McBride - Anyway (Radio Fade Version)
TTITLE1=02 - Miranda Lambert - Crazy Ex-Girlfriend
TTITLE2=03 - Aaron Tippin - He Believed
TTITLE3=04 - Deana Carter - In A Heartbeat
TTITLE4=05 - Dierks Bentley - Long Trip Alone
TTITLE5=06 - Joan Osborne - Who Divided
TTITLE6=07 - Mark Elliott - Not All Who Wander Are Lost
TTITLE7=08 - Reckless Johnny Wales - They're Dyin' To Come Home
TTITLE8=09 - Leland Martin - Wayfaring Stranger
TTITLE9=10 - Jimmy Glass - Mom And Dad
TTITLE10=11 - Brian Sauer - A Soldier's Christmas
TTITLE11=12 - Gloria Gaynor - Christmas Prayer
TTITLE12=13 - Brian Sauer - Red, White And Blue Christmas For You
TTITLE13=14 - Tim Aaron - This Christmas Eve
EXTD=
EXTT0=
EXTT1=
EXTT2=
EXTT3=
EXTT4=
EXTT5=
EXTT6=
EXTT7=
EXTT8=
EXTT9=
EXTT10=
EXTT11=
EXTT12=
EXTT13=
PLAYORDER=
